<?xml version="1.0" encoding="utf-8"?>
<!-- Generator: Adobe Illustrator 24.3.0, SVG Export Plug-In . SVG Version: 6.00 Build 0)  -->
<svg version="1.1" id="e2e0f303-db8f-43b0-b991-e6394321a108"
	 xmlns="http://www.w3.org/2000/svg" xmlns:xlink="http://www.w3.org/1999/xlink" x="0px" y="0px" viewBox="0 0 1068.8 689.4"
	 style="enable-background:new 0 0 1068.8 689.4;" xml:space="preserve">
<style type="text/css">
	.st0{fill:#F2F2F2;}
	.st1{fill:#3F3D56;}
	.st2{fill:#0AFCD7;}
	.st3{opacity:0.1;enable-background:new    ;}
	.st4{fill:#444053;}
	.st5{fill:#F6F8FB;}
	.st6{fill:#FFC1C7;}
	.st7{opacity:5.000000e-02;enable-background:new    ;}
	.st8{fill:#575A89;}
	.st9{fill:#057805;}
	.st10{opacity:3.000000e-02;enable-background:new    ;}
	.st11{fill:none;stroke:#3F3D56;stroke-width:4;stroke-miterlimit:10;}
	.st12{fill:#57B894;}
	.st13{fill:#656380;}
	.st14{opacity:0.2;enable-background:new    ;}
</style>
<path class="st0" d="M990.4,597.8L886.7,418.1c-0.9-1.6-2.9-2.1-4.5-1.2c-0.5,0.3-0.9,0.7-1.2,1.2L777.3,597.8
	c-0.9,1.6-0.4,3.6,1.1,4.5c0.5,0.3,1.1,0.5,1.7,0.5h30.9c1.8,0,3.3,1.5,3.3,3.3v38.4c0,1.8,1.5,3.3,3.3,3.3l0,0H858
	c1.8,0,3.3-1.5,3.3-3.3v-18.6c0-1.8,1.5-3.3,3.3-3.3H903c1.8,0,3.3,1.5,3.3,3.3v18.5c0,1.8,1.5,3.3,3.3,3.3H950
	c1.8,0,3.3-1.5,3.3-3.3v-38.4c0-1.8,1.5-3.3,3.3-3.3h30.9c1.8,0,3.3-1.5,3.3-3.4C990.8,598.8,990.7,598.3,990.4,597.8z M845.8,617.7
	c-0.6,0.6-1.5,1-2.3,1h-14.6c-1.8,0-3.3-1.5-3.3-3.3c0-1.8,1.5-3.3,3.3-3.3h14.6c1.8,0,3.3,1.5,3.3,3.3c0,0,0,0,0,0
	C846.8,616.2,846.4,617,845.8,617.7z M941.1,617.7c-0.6,0.6-1.5,1-2.3,1h-14.5c-1.8,0-3.3-1.5-3.3-3.3c0-1.8,1.5-3.3,3.3-3.3h14.5
	c1.8,0,3.3,1.5,3.3,3.3C942.1,616.2,941.7,617.1,941.1,617.7L941.1,617.7z"/>
<path class="st0" d="M349.3,599.4L245.6,419.7c-0.9-1.6-3-2.1-4.5-1.2c-0.5,0.3-0.9,0.7-1.2,1.2l-89.6,155.2
	c11.2,14.1,23.8,27.1,37.5,38.7h14.6c1.8,0,3.3,1.5,3.3,3.3c0,0.9-0.3,1.7-1,2.3c-0.6,0.6-1.5,1-2.3,1h-6.2
	c7.5,5.7,15.6,10.7,24,14.9v-7.7c0-1.8,1.5-3.3,3.3-3.3h38.4c1.8,0,3.3,1.5,3.3,3.3V646c0,0.5,0.1,1,0.3,1.4c0.5,1.2,1.7,1.9,3,1.9
	h40.4c1,0,2-0.5,2.6-1.3c0.4-0.6,0.7-1.3,0.7-2v-38.4c0-1.8,1.5-3.3,3.3-3.3h30.9c1.8,0,3.3-1.4,3.3-3.3
	C349.8,600.5,349.6,599.9,349.3,599.4z M280.8,614.6c0.6-0.6,1.5-1,2.4-1h14.6c1.8,0,3.3,1.5,3.3,3.3c0,1.8-1.5,3.3-3.3,3.3h-14.6
	c-1.8,0-3.3-1.5-3.3-3.3c0,0,0,0,0,0C279.8,616,280.2,615.2,280.8,614.6z M215.6,548.1c-1.8,0-3.3-1.5-3.3-3.3c0,0,0,0,0,0v-25.1
	c0-1.8,1.5-3.3,3.3-3.3c0,0,0,0,0,0h54.2c1.8,0,3.3,1.5,3.3,3.3v25.1c0,1.8-1.5,3.3-3.3,3.3L215.6,548.1z"/>
<path class="st0" d="M759.3,276.6H631v-27.8c0-3.7-3-6.6-6.6-6.6c0,0,0,0,0,0h-37.7v-29.5c0-2.3-1.9-4.2-4.2-4.2h-48.5
	c-2.3,0-4.2,1.9-4.2,4.2v29.6h-44.3c-3.7,0-6.6,3-6.6,6.6v0v27.7l0,0H356.4c-0.7,0-1.3,0.6-1.3,1.4v368.5c0,0.7,0.6,1.3,1.3,1.3
	h81.3c0.7,0,1.4-0.6,1.4-1.3v-49.6c0-0.7,0.6-1.3,1.4-1.3h34.3c0.7,0,1.3,0.6,1.3,1.3v49.6c0,0.7,0.6,1.3,1.3,1.3h160.7
	c0.7,0,1.3-0.6,1.3-1.3v-49.6c0-0.7,0.6-1.3,1.3-1.3h34.4c0.7,0,1.4,0.6,1.4,1.3v49.6c0,0.7,0.6,1.3,1.3,1.3h81.3
	c0.7,0,1.3-0.6,1.3-1.3V278C760.7,277.2,760.1,276.6,759.3,276.6z M424.5,578.4c0,0.7-0.6,1.3-1.3,1.3h-50.2c-0.7,0-1.4-0.6-1.4-1.3
	v0v-17.2c0-0.7,0.6-1.3,1.4-1.3h50.2c0.7,0,1.3,0.6,1.3,1.3L424.5,578.4z M424.5,534c0,0.7-0.6,1.3-1.3,1.3h0h-50.2
	c-0.7,0-1.4-0.6-1.4-1.3c0,0,0,0,0,0v-17.2c0-0.7,0.6-1.3,1.3-1.3c0,0,0,0,0,0h50.2c0.7,0,1.3,0.6,1.3,1.3c0,0,0,0,0,0L424.5,534z
	 M424.5,489.7c0,0.7-0.6,1.3-1.3,1.3h-50.2c-0.7,0-1.4-0.6-1.4-1.3v-17.2c0-0.7,0.6-1.3,1.4-1.3h50.2c0.7,0,1.3,0.6,1.3,1.3
	L424.5,489.7z M424.5,445.3c0,0.7-0.6,1.3-1.3,1.3h0h-50.2c-0.7,0-1.4-0.6-1.4-1.3c0,0,0,0,0,0v-17.1c0-0.7,0.6-1.3,1.3-1.4
	c0,0,0,0,0,0h50.2c0.7,0,1.3,0.6,1.3,1.3c0,0,0,0,0,0L424.5,445.3z M424.5,401c0,0.7-0.6,1.3-1.3,1.4h-50.2c-0.7,0-1.4-0.6-1.4-1.4
	v-17.2c0-0.7,0.6-1.3,1.4-1.3c0,0,0,0,0,0h50.2c0.7,0,1.3,0.6,1.3,1.3L424.5,401z M424.5,356.7c0,0.7-0.6,1.3-1.3,1.3h-50.2
	c-0.7,0-1.4-0.6-1.4-1.3c0,0,0,0,0,0v-17.2c0-0.7,0.6-1.4,1.4-1.4h50.2c0.7,0,1.3,0.6,1.3,1.4L424.5,356.7z M424.5,312.3
	c0,0.7-0.6,1.3-1.3,1.4c0,0,0,0,0,0h-50.2c-0.7,0-1.4-0.6-1.4-1.3c0,0,0,0,0,0v-17.1c0-0.7,0.6-1.4,1.3-1.4c0,0,0,0,0,0h50.2
	c0.7,0,1.3,0.6,1.3,1.3c0,0,0,0,0,0L424.5,312.3z M543.6,578.3c0,0.7-0.6,1.3-1.4,1.3h0H492c-0.7,0-1.3-0.6-1.3-1.3v0v-17.1
	c0-0.7,0.6-1.3,1.3-1.3h50.2c0.7,0,1.4,0.6,1.4,1.3V578.3z M543.6,534c0,0.7-0.6,1.3-1.3,1.3c0,0,0,0,0,0H492
	c-0.7,0-1.3-0.6-1.3-1.3c0,0,0,0,0,0v-17.1c0-0.7,0.6-1.3,1.3-1.3c0,0,0,0,0,0h50.2c0.7,0,1.4,0.6,1.4,1.3c0,0,0,0,0,0V534z
	 M543.6,489.7c0,0.7-0.6,1.3-1.4,1.3H492c-0.7,0-1.3-0.6-1.3-1.3v-17.2c0-0.7,0.6-1.3,1.3-1.3h50.2c0.7,0,1.4,0.6,1.4,1.3V489.7z
	 M543.6,445.3c0,0.7-0.6,1.3-1.3,1.4c0,0,0,0,0,0H492c-0.7,0-1.3-0.6-1.3-1.3c0,0,0,0,0,0v-17.1c0-0.7,0.6-1.3,1.3-1.3c0,0,0,0,0,0
	h50.2c0.7,0,1.4,0.6,1.4,1.3c0,0,0,0,0,0V445.3z M543.6,401c0,0.7-0.6,1.4-1.4,1.4H492c-0.7,0-1.3-0.6-1.3-1.4v-17.1
	c0-0.7,0.6-1.3,1.3-1.3l0,0h50.2c0.7,0,1.4,0.6,1.4,1.3c0,0,0,0,0,0V401z M543.6,356.7c0,0.7-0.6,1.3-1.4,1.3h0H492
	c-0.7,0-1.3-0.6-1.3-1.3v-17.2c0-0.7,0.6-1.3,1.3-1.4h50.2c0.7,0,1.4,0.6,1.4,1.4V356.7z M543.6,312.3c0,0.7-0.6,1.4-1.3,1.4
	c0,0,0,0,0,0H492c-0.7,0-1.3-0.6-1.3-1.3c0,0,0,0,0,0v-17.1c0-0.7,0.6-1.3,1.3-1.3c0,0,0,0,0,0h50.2c0.7,0,1.4,0.6,1.4,1.3
	c0,0,0,0,0,0V312.3z M625,578.3c0,0.7-0.6,1.3-1.3,1.3c0,0,0,0,0,0h-50.3c-0.7,0-1.3-0.6-1.4-1.3v-17.1c0-0.7,0.6-1.3,1.4-1.3h50.2
	c0.7,0,1.3,0.6,1.3,1.3L625,578.3z M625,534c0,0.7-0.6,1.3-1.3,1.3c0,0,0,0,0,0h-50.3c-0.7,0-1.4-0.6-1.4-1.3v-17.1
	c0-0.7,0.6-1.3,1.4-1.3h50.2c0.7,0,1.3,0.6,1.3,1.3c0,0,0,0,0,0L625,534z M625,489.7c0,0.7-0.6,1.3-1.3,1.3h-50.3
	c-0.7,0-1.3-0.6-1.4-1.3v-17.1c0-0.7,0.6-1.3,1.4-1.3h50.2c0.7,0,1.3,0.6,1.3,1.3L625,489.7z M625,445.3c0,0.7-0.6,1.3-1.3,1.3
	c0,0,0,0,0,0h-50.3c-0.7,0-1.4-0.6-1.4-1.3v-17.1c0-0.7,0.6-1.3,1.4-1.3h50.2c0.7,0,1.3,0.6,1.3,1.3c0,0,0,0,0,0L625,445.3z
	 M625,401c0,0.7-0.6,1.4-1.3,1.4h-50.3c-0.7,0-1.3-0.6-1.4-1.4v-17.1c0-0.7,0.6-1.3,1.4-1.3h50.2c0.7,0,1.3,0.6,1.3,1.3c0,0,0,0,0,0
	L625,401z M625,356.7c0,0.7-0.6,1.3-1.3,1.3c0,0,0,0,0,0h-50.3c-0.7,0-1.3-0.6-1.4-1.3v-17.1c0-0.7,0.6-1.3,1.4-1.4h50.2
	c0.7,0,1.3,0.6,1.3,1.4L625,356.7z M625,312.3c0,0.7-0.6,1.3-1.3,1.4c0,0,0,0,0,0h-50.3c-0.7,0-1.4-0.6-1.4-1.4v-17.1
	c0-0.7,0.6-1.4,1.4-1.4h50.2c0.7,0,1.3,0.6,1.3,1.3c0,0,0,0,0,0L625,312.3z M744.1,578.3c0,0.7-0.6,1.3-1.4,1.3h-50.2
	c-0.7,0-1.3-0.6-1.3-1.3c0,0,0,0,0,0v-17.1c0-0.7,0.6-1.3,1.3-1.3c0,0,0,0,0,0h50.2c0.7,0,1.3,0.6,1.4,1.3V578.3z M744.1,534
	c0,0.7-0.6,1.3-1.4,1.3h-50.2c-0.7,0-1.3-0.6-1.3-1.3c0,0,0,0,0,0v-17.1c0-0.7,0.6-1.3,1.3-1.3c0,0,0,0,0,0h50.2
	c0.7,0,1.4,0.6,1.4,1.3V534z M744.1,489.7c0,0.7-0.6,1.3-1.4,1.3h-50.2c-0.7,0-1.3-0.6-1.3-1.3v-17.2c0-0.7,0.6-1.3,1.3-1.3
	c0,0,0,0,0,0h50.2c0.7,0,1.3,0.6,1.4,1.3V489.7z M744.1,445.3c0,0.7-0.6,1.3-1.4,1.3h-50.2c-0.7,0-1.3-0.6-1.3-1.3c0,0,0,0,0,0
	v-17.1c0-0.7,0.6-1.3,1.3-1.3c0,0,0,0,0,0h50.2c0.7,0,1.4,0.6,1.4,1.3V445.3z M744.1,401c0,0.7-0.6,1.3-1.4,1.4h-50.2
	c-0.7,0-1.3-0.6-1.3-1.3c0,0,0,0,0,0v-17.1c0-0.7,0.6-1.3,1.3-1.3c0,0,0,0,0,0h50.2c0.7,0,1.3,0.6,1.4,1.3V401z M744.1,356.7
	c0,0.7-0.6,1.3-1.4,1.3h-50.2c-0.7,0-1.3-0.6-1.3-1.3v-17.2c0-0.7,0.6-1.3,1.3-1.3c0,0,0,0,0,0h50.2c0.7,0,1.3,0.6,1.4,1.4V356.7z
	 M744.1,312.3c0,0.7-0.6,1.4-1.4,1.4h-50.2c-0.7,0-1.3-0.6-1.3-1.3c0,0,0,0,0,0v-17.1c0-0.7,0.6-1.3,1.3-1.3c0,0,0,0,0,0h50.2
	c0.7,0,1.4,0.6,1.4,1.4V312.3z"/>
<path class="st0" d="M187.6,280.4c2.1-2.7,4-5.5,5.8-8.5l-40.7-6.7l44,0.3c8.5-18.5,9.1-39.8,1.4-58.7l-59,30.6l54.4-40
	c-20.6-35.4-66-47.4-101.4-26.8s-47.4,66-26.8,101.4c1.7,2.9,3.6,5.7,5.7,8.4c-3.3,4.2-6.1,8.7-8.4,13.5l52.7,27.4l-56.3-18.9
	c-8,23.7-3.5,49.9,12,69.6c-6.2,7.8-10.7,16.8-13.3,26.5c9.9,28.6,21.6,56.6,34.9,83.8c7.1,4.1,14.9,6.9,23,8.4
	c-1,2.8-1.5,5.7-1.5,8.6c-0.1,4.3,1,8.6,3.1,12.4c-1.9,3.2-2.9,6.8-3.2,10.6l0,0c9.1,15.6,19.2,30.6,30.1,45c-0.5-2.1-1.3-4.1-2.4-6
	c4.3-7.7,4.3-17.1,0-24.8c4.3-7.7,4.3-17.1,0-24.8c2.2-3.8,3.3-8,3.2-12.4c0-3-0.5-5.9-1.5-8.7c40.2-7.9,66.4-46.8,58.5-87
	c-2.3-11.5-7.2-22.3-14.5-31.6C208.8,345.3,208.8,307.4,187.6,280.4L187.6,280.4z"/>
<path class="st0" d="M1068.7,339.6l-3-0.5h2.9c-0.5-11.3-2.6-22.5-6.1-33.3l-10.5,5.4l9.8-7.3c-8.9-26-26-48.4-48.8-63.9
	c-37.7,16.3-55.2,60-38.9,97.8c2.5,5.9,5.8,11.4,9.8,16.5c-3.3,4.2-6.1,8.7-8.4,13.5l52.8,27.5l-56.3-18.9c-8,23.8-3.5,50,12,69.8
	c-25.4,32.3-19.7,79.1,12.6,104.5c6.1,4.8,13,8.6,20.3,11.3c4-9.5,7.9-19.4,11.5-29.6c3.2-9,6.3-18.2,9.2-27.4
	c8.4-27.1,15.5-54.7,21.2-82.6c6.4-31.7,10-59.4,10-77C1068.8,343.4,1068.8,341.5,1068.7,339.6z"/>
<ellipse class="st1" cx="532" cy="664.4" rx="532" ry="25"/>
<path class="st2" d="M814.4,404.9c-9.9-17.2-51-12.1-91.6,11.3c-7.1,4.1-13.9,8.6-20.4,13.5c-7.8-97.3-92.9-169.8-190.1-162.1
	c-88.2,7-157.5,78.2-162.3,166.5c-8.1-6.7-16.8-12.7-26-18c-40.5-23.4-81.6-28.5-91.5-11.3s15,50.2,55.6,73.7
	c26.3,15.2,52.8,22.7,70.9,21.4c10.3,30.8,29,58.1,53.8,79c-35.6,5-61.8,21.7-61.8,41.5c0,23.7,37.6,43,84,43s84-19.3,84-43
	c0-0.1,0-0.1,0-0.2c2.5,0.1,5,0.2,7.5,0.2c2.5,0,5,0,7.5-0.2c0,0.1,0,0.1,0,0.2c0,23.7,37.6,43,84,43s84-19.3,84-43
	c0-19.8-26.2-36.5-61.8-41.5c24.8-20.9,43.4-48.1,53.8-78.8c17.7-0.5,41.4-7.9,65-21.5C799.5,455.1,824.4,422.1,814.4,404.9z"/>
<path class="st3" d="M232.4,413.9c9.9-17.2,51-12.1,91.6,11.3c9,5.2,17.6,11.1,25.6,17.6c0.4-8.5,0.4,0.5,0.4-8.7
	c-8.2-6.7-16.8-12.7-26-17.9c-40.6-23.5-81.7-28.5-91.6-11.3c-2.2,3.8-2.7,8.4-1.7,13.4C231.1,416.8,231.6,415.3,232.4,413.9z"/>
<path class="st3" d="M814.6,413.9c-9.9-17.2-51-12.1-91.6,11.3c-9.5,5.5-13.1,7.5-20.6,13.6c-0.4-8.5-0.4,0.5-0.4-8.7
	c7.6-6.3,11.3-8.4,21-13.9c40.7-23.5,81.7-28.5,91.6-11.3c2.2,3.8,2.7,8.3,1.7,13.4C816,416.8,815.4,415.3,814.6,413.9z"/>
<ellipse class="st4" cx="479" cy="409.5" rx="18.3" ry="24"/>
<ellipse class="st4" cx="573.7" cy="409.5" rx="18.3" ry="24"/>
<path class="st1" d="M640.2,485c0,34.4-57.5,92.5-115.6,92.5s-113.4-59.3-113.4-93.7s54.2-3,112.2-3S640.2,450.6,640.2,485z"/>
<path class="st5" d="M429.5,490.9c0,0,104.4,23.2,192,0.7c0,0,10.7,0,3.4,12.4c-1.9,3.2-4.7,5.8-8,7.5
	c-16.9,8.6-79.5,34.1-179.5,1.6c-6.3-2-11.2-7-13-13.3C423.3,495.5,423.8,491.5,429.5,490.9z"/>
<path class="st3" d="M525.7,290.5c93.5,0,170.8,72.8,176.3,166.2c0.3-4.4,0.5-8.8,0.5-13.3c-0.7-97.6-80.4-176.1-178-175.3
	C428,268.8,350,346.9,349.2,443.4c0,3.5,0.1,7,0.3,10.5C356.5,361.8,433.3,290.6,525.7,290.5z"/>
<path class="st1" d="M545.6,62.1c0,12.5-10.1,22.6-22.6,22.6c-12.5,0-22.6-10.1-22.6-22.6c0-0.4,0-0.7,0-1.1
	c0.6-12.5,11.3-22.1,23.8-21.4c11.6,0.6,20.8,9.9,21.4,21.4C545.6,61.4,545.6,61.7,545.6,62.1z"/>
<path class="st3" d="M545.6,62.1c0,12.5-10.1,22.6-22.6,22.6c-12.5,0-22.6-10.1-22.6-22.6c0-0.4,0-0.7,0-1.1
	c13.2-10.7,32.1-10.7,45.2,0C545.6,61.4,545.6,61.7,545.6,62.1z"/>
<circle class="st1" cx="523" cy="90.7" r="35.8"/>
<path class="st1" d="M501.4,57.1c0-11.3,8.4-20.9,19.6-22.4c-12.4-1.7-23.8,7-25.4,19.4c-1.7,12.4,7,23.8,19.4,25.4c2,0.3,4,0.3,6,0
	C509.8,78,501.4,68.4,501.4,57.1z"/>
<path class="st1" d="M482.7,105.2c-8.5-7.5-10.1-20.2-3.8-29.6c-9.4,8.2-10.4,22.5-2.2,31.9c8.2,9.4,22.5,10.4,31.9,2.2
	c0.7-0.6,1.4-1.3,2.1-2.1c0.7-0.8,1.3-1.6,1.8-2.4C503.9,112.8,491.2,112.7,482.7,105.2z"/>
<path class="st6" d="M504.3,136c-1.8,0.6-3.8,0.7-5.3,1.8c-3,2.1-2.9,6.5-2,10c2,8,7,15.7,14.6,19c4.6,2,9.7,2.2,14.7,2.1
	c5.4-0.1,11.5-0.8,14.9-5c1.7-2.1,2.4-4.8,3-7.5c1.7-6.5,3.3-13.1,2.7-19.8c-3.3,0.3-7,0.5-9.5-1.6s-3.2-6-4.3-9.3
	c-0.1-0.5-0.4-1-0.8-1.3c-0.5-0.2-1-0.3-1.5-0.2c-3.4,0.1-6.9,0-10.3-0.5c-2.1-0.3-7.4-2.5-9-0.6c-1.2,1.4-0.4,5.5-1.3,7.4
	C509,133.1,506.9,135,504.3,136z"/>
<path class="st7" d="M504.3,136c-1.8,0.6-3.8,0.7-5.3,1.8c-3,2.1-2.9,6.5-2,10c2,8,7,15.7,14.6,19c4.6,2,9.7,2.2,14.7,2.1
	c5.4-0.1,11.5-0.8,14.9-5c1.7-2.1,2.4-4.8,3-7.5c1.7-6.5,3.3-13.1,2.7-19.8c-3.3,0.3-7,0.5-9.5-1.6s-3.2-6-4.3-9.3
	c-0.1-0.5-0.4-1-0.8-1.3c-0.5-0.2-1-0.3-1.5-0.2c-3.4,0.1-6.9,0-10.3-0.5c-2.1-0.3-7.4-2.5-9-0.6c-1.2,1.4-0.4,5.5-1.3,7.4
	C509,133.1,506.9,135,504.3,136z"/>
<path class="st4" d="M317.6,369.3c-8,0.2-16.2-0.1-24,1.7c-1.5,0.2-2.9,0.9-3.9,2c-1.1,1.6-0.5,3.9,0.4,5.7c2.2,4,5.8,7,10.1,8.4
	c4.8,1.5,9.9,0.9,14.9,1.1c6.8,0.2,13.5,1.8,19.6,4.7c1.4,0.7,2.9,1.4,4.4,1.2c2.2-0.3,3.6-2.5,4.4-4.6c0.9-2.5,1.7-5.1,2.2-7.7
	c1.2-4.9,1.3-14.7-5.5-16c-3.1-0.6-6.8,1.5-9.7,2.2C326.3,368.8,321.9,369.2,317.6,369.3z"/>
<path class="st4" d="M727.6,371.6c1.9-0.7,3.5-1.9,4.7-3.6c3-4.4,3-9.6,4.6-14.4c2-6.2,6.4-11.4,9.2-17.3c2.5-5.3,3.6-11.1,3.3-17
	c-0.1-1.7-1.5-2.9-3.2-2.8c-0.1,0-0.2,0-0.4,0c-3.8,0.7-7.2,3.5-9.6,6.6c-3.1,4-5.1,8.8-8.3,12.7s-7.6,7.1-11.4,10.8
	c-4.7,4.6-8.4,9.5-4.2,15.4C715.8,366.9,720.6,373.9,727.6,371.6z"/>
<path class="st8" d="M482.5,240.7c-25.2,32.7-56.4,60.3-92,81.2c-10.9,6.4-22.2,12.2-31.9,20.3c-7.3,6.2-13.6,13.5-19.8,20.8
	c-0.7,0.7-1.2,1.6-1.4,2.6c0,0.7,0.1,1.4,0.4,2.1c2,5.9,4.3,12.3,9.7,15.5c13.8-20,41.3-25.2,62.4-37.3c9.8-5.6,18.7-12.6,27.8-19.4
	c13.1-9.8,26.4-19.1,40.1-28.1c9-5.9,18.4-11.8,28.8-14.9c22-6.6,46,0,66.3,10.8s38.2,25.6,58.1,37c27.1,15.6,57.2,24.8,87.1,33.9
	c1.1-7.2,1.7-14.2,3.2-21.3c-7.5-1-14.5-4-21.5-6.9c-7.8-3.2-15.6-6.5-22.6-11.2c-4.6-3.1-8.8-6.8-13.4-10
	c-9.9-7-21.5-11.4-31.5-18.2c-13.1-8.8-23.3-21.4-35.3-31.7c-5.2-4.5-10.8-8.6-16.4-12.6c-5.8-4.2-11.6-8.5-18.2-11.1
	c-7.9-3.1-16.5-3.8-24.9-4.4C518.6,236.5,500.4,234.6,482.5,240.7z"/>
<circle class="st6" cx="522.5" cy="107.9" r="25"/>
<path class="st9" d="M521.8,160.1c-4.5-0.6-8.8-2.1-12.6-4.6c-3.8-2.5-6.5-6.3-7.7-10.7c-0.8-3.5-0.4-7.3-1.8-10.7
	c-4.5,2.3-9.2,4.2-14,5.7c-2.7,0.9-5.5,1.6-7.7,3.4c-4.7,3.9-5,10.8-4.9,16.9c0,1.2,0.1,2.4,0.5,3.6c0.4,1.1,1.1,2.1,2,2.9
	c5.1,5.5,13.1,7.8,18,13.5c-2.5,2.8-4.2,6.4-4.7,10.2c-0.1,1.5-0.3,3-0.6,4.5c-0.4,1.2-0.9,2.4-1.5,3.6c-3.2,7.2-3,15.3-3.5,23.2
	s-1.8,16.2-7.1,22c2.2,2.3,5,3,8.1,3.3s6.3-0.1,9.5,0c8.4,0.2,16.2,3.7,24.3,5.9c8.1,2.2,17.2,3.1,24.3-1.2c2.5-1.5,4.6-3.6,7.1-5.1
	c3-1.8,6.5-2.7,10-3.5l1.2-41.8c0-2.9,0.2-5.8,0.6-8.8c1.8-11.4,9.1-21.1,16.2-30.2c-0.8-8.5-5.5-16-12.7-20.6
	c-3.2-1.9-6.5-3.4-10-4.6l-8.2-3.2c-0.7-0.4-1.5-0.5-2.3-0.4c-1.8,0.3-2.5,2.5-2.6,4.3c-0.2,2.8,0.3,5.7,0.2,8.5s-0.8,5.8-2.8,7.8
	c-1.4,1.3-3.1,2.3-5,2.8C529.7,158.4,526.2,160.7,521.8,160.1z"/>
<path class="st6" d="M488.6,264.7c0.3,5.6,0.7,11.2-0.3,16.7s-3.2,10.9-7.4,14.6c-3.2,2.9-7.8,5-8.6,9.3c-0.2,0.9-0.1,1.9,0.2,2.8
	c0.9,2.1,3.5,3,5.8,2.7c2.2-0.5,4.3-1.6,6-3.1c3.5-2.8,6.8-5.8,9.9-9c2.8-2.7,5.7-5.6,6.8-9.3c0.5-1.8,0.8-3.6,0.8-5.4
	c0.7-10,0.8-20,1-30c0.1-7.3,0.2-14.8-2.5-21.6c0.4,1-9.3,2-10.1,2c-4.2,0.4-3.4,2.1-3.2,6.1C487.6,248.6,488.1,256.7,488.6,264.7z"
	/>
<path class="st6" d="M561.4,264.7c-0.3,5.6-0.7,11.2,0.3,16.7s3.2,10.9,7.4,14.6c3.2,2.9,7.8,5,8.6,9.3c0.2,0.9,0.1,1.9-0.2,2.8
	c-0.9,2.1-3.5,3-5.8,2.7c-2.2-0.5-4.3-1.6-6-3.1c-3.5-2.8-6.8-5.8-9.9-9c-2.8-2.7-5.7-5.6-6.8-9.3c-0.5-1.8-0.8-3.6-0.8-5.4
	c-0.7-10-0.8-20-1-30c-0.1-7.3-0.2-14.8,2.5-21.6c-0.4,1,9.3,2,10.1,2c4.2,0.4,3.4,2.1,3.2,6.1C562.4,248.6,561.9,256.7,561.4,264.7
	z"/>
<path class="st3" d="M476,156.4c-3.5,10.4-2.1,22,1.5,32.4c0.9,2.5,1.9,5.2,1.5,7.9c-0.3,1.4-0.7,2.7-1.2,4c-1,3.1-1.2,6.5-0.5,9.7
	c0.1,1,0.5,1.9,1.1,2.7c0.4,0.4,0.7,0.8,1,1.2c1.4,2.1-1.3,4.8-1,7.3c0.2,2.1,2.4,3.3,3.9,4.9c4.2,4.3,3.4,11.2,2.3,17.1
	c5.1-0.5,9.5-4.6,14.6-4.3c3.4,0.3,6.4,2.6,7.5,5.8c-0.2-5,1.6-9.2,2-14.1c0.6-6.4-3.6-12.2-5.6-18.3c-2.9-8.9-1.3-18.6-2-28
	c-0.3-3.5-0.8-7-1.5-10.4c-0.9-4.7-2.2-9.8-6.2-12.5C488.2,158.3,480.5,160.7,476,156.4z"/>
<path class="st9" d="M475,154.4c-3.5,10.4-2.1,22,1.5,32.4c0.9,2.5,1.9,5.2,1.5,7.9c-0.3,1.4-0.7,2.7-1.2,4c-1,3.1-1.2,6.5-0.5,9.7
	c0.1,1,0.5,1.9,1.1,2.7c0.4,0.4,0.7,0.8,1,1.2c1.4,2.1-1.3,4.8-1,7.3c0.2,2.1,2.4,3.3,3.9,4.9c4.2,4.3,3.4,11.2,2.3,17.1
	c5.1-0.5,9.5-4.6,14.6-4.3c3.4,0.3,6.4,2.6,7.5,5.8c-0.2-5,1.6-9.2,2-14.1c0.6-6.4-3.6-12.2-5.6-18.3c-2.9-8.9-1.3-18.6-2-28
	c-0.3-3.5-0.8-7-1.5-10.4c-0.9-4.7-2.2-9.8-6.2-12.5C487.2,156.3,479.5,158.7,475,154.4z"/>
<path class="st3" d="M574,156.4c3.5,10.4,2.1,22-1.5,32.4c-0.9,2.5-1.9,5.2-1.5,7.9c0.3,1.4,0.7,2.7,1.2,4c1,3.1,1.2,6.5,0.5,9.7
	c-0.1,1-0.5,1.9-1.1,2.7c-0.4,0.4-0.7,0.8-1,1.2c-1.4,2.1,1.3,4.8,1,7.3c-0.2,2.1-2.4,3.3-3.9,4.9c-4.2,4.3-3.4,11.2-2.3,17.1
	c-5.1-0.5-9.5-4.6-14.6-4.3c-3.4,0.3-6.4,2.6-7.5,5.8c0.2-5-1.6-9.2-2-14.1c-0.6-6.4,3.6-12.2,5.6-18.3c2.9-8.9,1.3-18.6,2-28
	c0.3-3.5,0.8-6.9,1.5-10.3c0.9-4.7,2.2-9.8,6.2-12.5C561.8,158.3,569.5,160.7,574,156.4z"/>
<path class="st9" d="M575,154.4c3.5,10.4,2.1,22-1.5,32.4c-0.9,2.5-1.9,5.2-1.5,7.9c0.3,1.4,0.7,2.7,1.2,4c1,3.1,1.2,6.5,0.5,9.7
	c-0.1,1-0.5,1.9-1.1,2.7c-0.4,0.4-0.7,0.8-1,1.2c-1.4,2.1,1.3,4.8,1,7.3c-0.2,2.1-2.4,3.3-3.9,4.9c-4.2,4.3-3.4,11.2-2.3,17.1
	c-5.1-0.5-9.5-4.6-14.6-4.3c-3.4,0.3-6.4,2.6-7.5,5.8c0.2-5-1.6-9.2-2-14.1c-0.6-6.4,3.6-12.2,5.6-18.3c2.9-8.9,1.3-18.6,2-28
	c0.3-3.5,0.8-6.9,1.5-10.3c0.9-4.7,2.2-9.8,6.2-12.5C562.8,156.3,570.5,158.7,575,154.4z"/>
<ellipse class="st1" cx="522" cy="84.4" rx="30" ry="20"/>
<path class="st7" d="M497,190.4c0-7.4,5.7-13.5,13-14c-0.3,0-0.7,0-1,0c-7.7,0-14,6.3-14,14s6.3,14,14,14c0.3,0,0.7,0,1,0
	C502.7,203.9,497,197.8,497,190.4z"/>
<ellipse class="st9" cx="508" cy="190.4" rx="11" ry="14"/>
<path class="st7" d="M554,190.4c0-7.4-5.7-13.5-13-14c0.3,0,0.7,0,1,0c7.7,0,14,6.3,14,14s-6.3,14-14,14c-0.3,0-0.7,0-1,0
	C548.3,203.9,554,197.8,554,190.4z"/>
<ellipse class="st9" cx="543" cy="190.4" rx="11" ry="14"/>
<path class="st3" d="M522,102.4c-16.1,0-29.2-8.4-30-19c0,0.3,0,0.7,0,1c0,11,13.4,20,30,20c16.6,0,30-9,30-20c0-0.3,0-0.7,0-1
	C551.2,94,538.1,102.4,522,102.4z"/>
<path class="st0" d="M345,34.1L329.5,44l9.4-17.1c-2.7-2.1-6-3.3-9.4-3.4h-0.2c-1.1,0-2.2-0.1-3.2-0.2l-5.3,3.3l2.2-4.1
	c-3.7-1.3-6.9-3.8-9.2-7l-9.4,6l6-10.8C304.9,4.1,297.5,0,289.3,0c-9.8,0-18.5,5.8-24.1,14.9c-3.4,5.5-9.5,8.8-16,8.6h-0.5
	c-10.8,0-19.6,12.3-19.6,27.4s8.8,27.4,19.6,27.4c2.4,0,4.7-0.6,6.8-1.7c7-3.7,16.3-3.7,23.7-0.5c6.4,2.9,13.7,2.9,20.1,0
	c7.5-3.3,16.1-3.1,23.5,0.4c2.1,1.1,4.4,1.7,6.8,1.7c10.8,0,19.6-12.2,19.6-27.4C349.1,45,347.7,39.3,345,34.1z"/>
<path class="st10" d="M315.7,74.2c-5.6-1.1-11.5-0.4-16.8,1.8c-6.4,2.9-13.7,2.9-20.1,0c-7.6-3.3-16.2-3.2-23.7,0.5
	c-2.1,1.1-4.4,1.7-6.8,1.7c-9.6,0-17.6-9.7-19.3-22.4c1.9-1.4,3.5-3.2,4.8-5.2c5.6-9.1,14.4-14.9,24.1-14.9s18.4,5.8,24,14.7
	c3.4,5.5,9.5,8.8,16,8.8h0.2C305.9,59.1,312.5,65.2,315.7,74.2z"/>
<path class="st0" d="M875,205.7l-7.7,4.9l4.7-8.5c-1.3-1.1-3-1.7-4.7-1.7h-0.1c-0.5,0-1.1,0-1.6-0.1l-2.6,1.7l1.1-2
	c-1.9-0.7-3.5-1.9-4.6-3.5l-4.7,3l3-5.4c-2.5-3.3-6.4-5.3-10.6-5.4c-4.9,0-9.2,2.9-12,7.4c-1.7,2.8-4.8,4.4-8,4.3h-0.3
	c-5.4,0-9.8,6.1-9.8,13.6s4.4,13.6,9.8,13.6c1.2,0,2.4-0.3,3.4-0.9c3.7-1.8,8-1.9,11.8-0.2c3.2,1.4,6.8,1.4,10,0
	c3.8-1.6,8-1.5,11.7,0.2c1,0.5,2.2,0.8,3.4,0.8c5.4,0,9.8-6.1,9.8-13.6C877,211.2,876.3,208.3,875,205.7z"/>
<path class="st10" d="M860.4,225.7c-2.8-0.5-5.7-0.2-8.4,0.9c-1.6,0.7-3.3,1.1-5,1.1c-1.7,0-3.4-0.4-5-1.1
	c-3.8-1.7-8.1-1.6-11.8,0.2c-1,0.6-2.2,0.8-3.4,0.9c-4.8,0-8.8-4.8-9.6-11.2c1-0.7,1.8-1.6,2.4-2.6c2.8-4.5,7.2-7.4,12-7.4
	s9.2,2.9,12,7.4c1.7,2.8,4.8,4.4,8,4.4h0.1C855.5,218.2,858.8,221.3,860.4,225.7z"/>
<path class="st0" d="M716.1,91.7l12.4,7.9L721,85.9c2.1-1.7,4.8-2.7,7.5-2.7h0.2c0.9,0,1.7-0.1,2.6-0.2l4.2,2.7l-1.8-3.3
	c3-1.1,5.6-3,7.4-5.7l7.5,4.8l-4.8-8.7c4.4-5.3,10.3-8.6,16.9-8.6c7.8,0,14.8,4.7,19.3,11.9c2.7,4.4,7.6,7.1,12.8,6.9h0.4
	c8.7,0,15.7,9.8,15.7,21.9s-7,21.9-15.7,21.9c-1.9,0-3.8-0.5-5.5-1.4c-6-2.9-12.9-3.1-19-0.4c-5.1,2.3-11,2.3-16.1,0
	c-6-2.6-12.9-2.5-18.8,0.4c-1.7,0.9-3.5,1.3-5.4,1.3c-8.7,0-15.7-9.8-15.7-21.9C712.8,100.4,713.9,95.8,716.1,91.7z"/>
<path class="st10" d="M739.6,123.7c4.5-0.9,9.2-0.4,13.4,1.5c5.1,2.3,11,2.3,16.1,0c6.1-2.7,13-2.5,19,0.4c1.7,0.9,3.6,1.4,5.5,1.4
	c7.7,0,14.1-7.8,15.4-18c-1.5-1.1-2.8-2.5-3.8-4.1c-4.5-7.3-11.5-11.9-19.3-11.9s-14.7,4.6-19.2,11.8c-2.7,4.4-7.6,7.1-12.8,7h-0.2
	C747.5,111.7,742.2,116.6,739.6,123.7z"/>
<path class="st11" d="M241.4,653.9c-4.1-7.6,0.5-17,5.9-23.8c5.4-6.8,12-13.9,11.8-22.6c-0.2-12.5-13.5-19.8-24-26.5
	c-7.8-4.9-15.1-10.7-21.6-17.3c-2.7-2.5-5-5.5-6.6-8.9c-2.2-4.9-2.1-10.4-2-15.8c0.5-17.8,1.3-35.6,2.6-53.4"/>
<path class="st12" d="M187.5,484.7c0.3-6.6,4-12.7,9.7-16l4.4,8.6l-0.1-10.4c2.1-0.6,4.2-0.9,6.4-0.8c10.7,0.5,19,9.6,18.5,20.3
	c-0.5,10.7-9.6,19-20.3,18.5C195.3,504.6,187,495.5,187.5,484.7z"/>
<path class="st12" d="M222.2,616.4c4.9,9.6,16.6,13.3,26.2,8.4s13.3-16.6,8.4-26.2c-4.9-9.6-16.6-13.3-26.2-8.4
	c-4.3,2.2-7.7,6-9.3,10.5l12.1,9.9l-13.4-3.1C220,610.6,220.8,613.7,222.2,616.4z"/>
<path class="st12" d="M231.8,578.6c10.7,0.5,19.9-7.8,20.4-18.5c0.4-9.1-5.5-17.2-14.2-19.7l0.1,8l-4.4-8.7h0
	c-10.7-0.7-20,7.4-20.7,18.1s7.4,20,18.1,20.7C231.3,578.6,231.5,578.6,231.8,578.6L231.8,578.6z"/>
<path class="st12" d="M184.6,547.2c10.7,0.5,19.8-7.8,20.3-18.5s-7.8-19.8-18.5-20.3c-3.6-0.2-7.2,0.7-10.4,2.5l3.4,9.4l-7.1-6.8
	c-3.8,3.5-6.1,8.3-6.3,13.4c-0.1,1.8,0.1,3.6,0.5,5.4C168.5,540.7,175.9,546.8,184.6,547.2z"/>
<path class="st3" d="M190.1,489.9c4.5,0.5,8.9,1.9,13.4,2.2s9.5-0.8,12.3-4.3c1.5-1.9,2.3-4.3,3.6-6.3c1.2-1.9,2.9-3.5,4.9-4.6
	c4.9,9.6,1,21.3-8.6,26.1c-9.6,4.9-21.3,1-26.1-8.6c-0.7-1.5-1.3-3-1.7-4.6C188.6,489.7,189.4,489.8,190.1,489.9z"/>
<path class="st3" d="M184.6,547.2c10.7,0.5,19.9-7.8,20.4-18.5c0.1-3.2-0.5-6.3-1.8-9.2c-1.5,1-2.9,2.4-3.9,3.9
	c-1.4,2.1-2.2,4.5-3.9,6.4c-3,3.6-8.2,4.7-12.9,4.5c-4.7-0.2-9.2-1.5-13.9-2c-0.6-0.1-1.3-0.1-2-0.1
	C168.5,540.7,175.8,546.8,184.6,547.2z"/>
<path class="st3" d="M231.8,578.6c10.7,0.5,19.8-7.8,20.4-18.5c0.1-3-0.4-6.1-1.7-8.9c-1.6,1.1-3,2.4-4.1,4
	c-1.5,2.1-2.5,4.6-4.2,6.6c-3.3,3.7-8.8,5-13.8,4.8c-4.8-0.1-9.5-1.3-14.2-1.7C216.5,572.8,223.6,578.3,231.8,578.6z"/>
<path class="st3" d="M222.2,616.4c4.9,9.6,16.7,13.3,26.2,8.4c8.8-4.5,12.8-15,9.3-24.3c-1.6,1.1-3,2.3-4.3,3.8
	c-1.9,2.3-3.1,4.8-5.2,6.9c-4,3.9-10.4,5.5-16.1,5.7C228.8,616.9,225.5,616.8,222.2,616.4z"/>
<path class="st11" d="M817.9,646.4c-3-5.6,0.4-12.6,4.4-17.6s8.8-10.3,8.7-16.7c-0.1-9.2-9.9-14.7-17.7-19.5
	c-5.8-3.6-11.2-7.9-15.9-12.8c-2-1.9-3.7-4.1-4.9-6.6c-1.6-3.6-1.6-7.7-1.5-11.7c0.3-13.1,1-26.3,2-39.4"/>
<path class="st12" d="M778,521.4c0.2-4.9,2.9-9.3,7.2-11.8l3.2,6.4l-0.1-7.7c1.5-0.4,3.1-0.6,4.7-0.6c7.9,0.4,14.1,7.1,13.7,15
	s-7.1,14.1-15,13.7S777.7,529.4,778,521.4C778.1,521.4,778.1,521.4,778,521.4L778,521.4z"/>
<path class="st12" d="M803.7,618.7c3.6,7.1,12.3,9.8,19.4,6.2c7.1-3.6,9.8-12.3,6.2-19.4s-12.3-9.8-19.4-6.2
	c-3.2,1.6-5.7,4.4-6.9,7.8l9,7.3l-9.9-2.3C802.1,614.4,802.6,616.7,803.7,618.7z"/>
<path class="st12" d="M810.8,590.7c7.9,0.4,14.6-5.8,15-13.7c0.1-2.2-0.3-4.5-1.2-6.5c-1.7-3.9-5.1-6.8-9.2-8l0.1,5.9l-3.2-6.5l0,0
	c-7.9-0.4-14.7,5.8-15,13.7C796.7,583.6,802.8,590.3,810.8,590.7L810.8,590.7z"/>
<path class="st12" d="M775.9,567.5c7.9,0.4,14.7-5.7,15.1-13.7c0.4-7.9-5.7-14.7-13.7-15.1c-2.7-0.1-5.4,0.5-7.7,1.8l2.5,7l-5.2-5
	c-2.8,2.6-4.5,6.1-4.6,9.9c-0.1,1.3,0,2.7,0.4,4C764.1,562.8,769.5,567.3,775.9,567.5z"/>
<path class="st3" d="M780,525.2c3.3,0.4,6.5,1.4,9.9,1.6s7-0.6,9.1-3.2c1.1-1.4,1.7-3.2,2.7-4.7c0.9-1.4,2.2-2.6,3.6-3.4
	c3.6,7.1,0.8,15.7-6.3,19.3c-2.2,1.1-4.7,1.7-7.2,1.5c-6.5-0.3-12-5-13.3-11.3C778.9,525.1,779.4,525.2,780,525.2z"/>
<path class="st3" d="M775.9,567.5c7.9,0.4,14.7-5.8,15-13.7c0.1-2.3-0.4-4.7-1.4-6.8c-1.1,0.8-2.1,1.8-2.9,2.9
	c-1,1.5-1.6,3.3-2.8,4.8c-2.2,2.6-6.1,3.5-9.5,3.3c-3.5-0.2-6.8-1.2-10.3-1.5c-0.5-0.1-1-0.1-1.5-0.1
	C764,562.7,769.5,567.2,775.9,567.5z"/>
<path class="st3" d="M810.8,590.7c7.9,0.4,14.6-5.8,15-13.7c0.1-2.2-0.3-4.5-1.2-6.5c-1.2,0.8-2.2,1.8-3,2.9
	c-1.1,1.6-1.8,3.4-3.1,4.8c-2.4,2.7-6.5,3.7-10.2,3.6s-7-1-10.5-1.2C799.5,586.4,804.7,590.4,810.8,590.7z"/>
<path class="st3" d="M803.7,618.7c3.7,7,12.3,9.8,19.4,6.1c6.5-3.4,9.4-11,6.8-17.9c-1.2,0.8-2.3,1.7-3.2,2.8
	c-1.4,1.7-2.3,3.5-3.8,5.1c-2.9,2.9-7.7,4.1-11.9,4.2C808.5,619.1,806.1,619,803.7,618.7z"/>
<path class="st11" d="M939.6,660.9c4.1-7.6-0.5-17-5.9-23.8c-5.4-6.8-12-13.9-11.8-22.6c0.2-12.5,13.5-19.8,24-26.5
	c7.8-4.9,15.1-10.7,21.6-17.3c2.7-2.5,5-5.5,6.6-8.9c2.2-4.9,2.1-10.4,2-15.8c-0.4-17.8-1.3-35.6-2.6-53.3"/>
<path class="st12" d="M993.5,491.7c-0.3-6.6-4-12.7-9.7-16l-4.4,8.6l0.1-10.4c-2.1-0.6-4.2-0.9-6.4-0.8c-10.7,0.5-19,9.6-18.5,20.3
	c0.5,10.7,9.6,19,20.3,18.5C985.7,511.5,994,502.4,993.5,491.7z"/>
<path class="st12" d="M958.8,623.4c-4.9,9.6-16.6,13.3-26.2,8.4s-13.3-16.6-8.4-26.2c4.9-9.6,16.6-13.3,26.2-8.4
	c4.3,2.2,7.7,6,9.3,10.5l-12.2,9.9l13.4-3.1C961,617.6,960.2,620.7,958.8,623.4z"/>
<path class="st12" d="M949.2,585.6c-10.7,0.5-19.9-7.8-20.4-18.5c-0.4-9.1,5.5-17.2,14.2-19.7l-0.1,8l4.5-8.7l0,0
	c10.7-0.7,20,7.4,20.7,18.1c0.7,10.7-7.4,20-18.1,20.7C949.7,585.6,949.5,585.6,949.2,585.6L949.2,585.6z"/>
<path class="st12" d="M996.5,554.2c-10.7,0.5-19.8-7.8-20.3-18.5s7.8-19.8,18.5-20.3c3.6-0.2,7.2,0.7,10.4,2.5l-3.4,9.4l7.1-6.8
	c7.9,7.3,8.5,19.6,1.2,27.5C1006.4,551.7,1001.6,554,996.5,554.2z"/>
<path class="st3" d="M990.9,496.9c-4.5,0.5-8.9,1.9-13.4,2.2s-9.4-0.8-12.3-4.3c-1.5-1.9-2.3-4.3-3.6-6.3c-1.2-1.9-2.9-3.5-4.9-4.6
	c-4.9,9.6-1,21.3,8.6,26.1c9.6,4.9,21.3,1,26.1-8.6c0.7-1.5,1.3-3,1.7-4.6C992.4,496.7,991.6,496.8,990.9,496.9z"/>
<path class="st3" d="M996.5,554.2c-10.7,0.5-19.9-7.8-20.4-18.5c-0.1-3.2,0.5-6.3,1.8-9.2c1.5,1,2.9,2.4,3.9,3.9
	c1.4,2.1,2.2,4.5,3.8,6.4c3,3.6,8.2,4.7,12.9,4.5s9.2-1.5,13.9-2c0.6-0.1,1.3-0.1,2-0.1C1012.6,547.7,1005.2,553.8,996.5,554.2z"/>
<path class="st3" d="M949.2,585.6c-10.7,0.5-19.8-7.8-20.4-18.5c-0.1-3,0.4-6.1,1.7-8.9c1.6,1.1,3,2.4,4.1,4
	c1.5,2.1,2.5,4.6,4.2,6.6c3.3,3.7,8.8,5,13.8,4.8c4.8-0.1,9.5-1.3,14.2-1.7C964.5,579.8,957.4,585.3,949.2,585.6z"/>
<path class="st3" d="M958.8,623.4c-5.1,9.5-16.9,13-26.4,7.9c-8.5-4.6-12.4-14.7-9.1-23.8c1.6,1.1,3,2.3,4.3,3.8
	c1.8,2.3,3.1,4.8,5.2,6.9c4,3.9,10.4,5.5,16.1,5.7C952.3,623.9,955.6,623.8,958.8,623.4z"/>
<path class="st13" d="M211.2,648.1c0,0,15.4-0.5,20-3.8s23.6-7.2,24.8-2s23.1,26.3,5.7,26.4s-40.3-2.7-44.9-5.5
	C212.2,660.4,211.2,648.1,211.2,648.1z"/>
<path class="st14" d="M262,667c-17.3,0.1-40.3-2.7-44.9-5.5c-3.5-2.1-4.9-9.8-5.4-13.4h-0.5c0,0,1,12.4,5.6,15.2
	c4.6,2.8,27.6,5.7,44.9,5.5c5,0,6.7-1.8,6.6-4.5C267.7,665.9,265.8,666.9,262,667z"/>
<path class="st13" d="M799.4,646.2c0,0,9-0.3,11.7-2.2c2.7-1.9,13.8-4.2,14.5-1.1s13.5,15.3,3.3,15.4s-23.5-1.6-26.2-3.2
	C800,653.4,799.4,646.2,799.4,646.2z"/>
<path class="st14" d="M829,657.2c-10.1,0.1-23.5-1.6-26.2-3.2c-2-1.2-2.9-5.7-3.1-7.8h-0.3c0,0,0.6,7.2,3.3,8.9s16.1,3.3,26.2,3.2
	c2.9,0,3.9-1.1,3.9-2.6C832.3,656.6,831.2,657.2,829,657.2z"/>
<path class="st13" d="M910.2,652.1c0,0,15.3-0.5,20-3.8s23.6-7.2,24.8-2s23.1,26.3,5.7,26.4s-40.3-2.7-44.9-5.5
	C911.2,664.4,910.2,652.1,910.2,652.1z"/>
<path class="st14" d="M961,671c-17.3,0.1-40.3-2.7-44.9-5.5c-3.5-2.1-4.9-9.8-5.4-13.4h-0.5c0,0,1,12.4,5.6,15.2
	c4.6,2.8,27.6,5.7,44.9,5.5c5,0,6.7-1.8,6.6-4.5C966.7,669.9,964.8,670.9,961,671z"/>
</svg>
